<?xml version="1.0" encoding="UTF-8" standalone="no"?>
<!-- Created with Inkscape (http://www.inkscape.org/) -->

<svg
   xmlns:dc="http://purl.org/dc/elements/1.1/"
   xmlns:cc="http://creativecommons.org/ns#"
   xmlns:rdf="http://www.w3.org/1999/02/22-rdf-syntax-ns#"
   xmlns:svg="http://www.w3.org/2000/svg"
   xmlns="http://www.w3.org/2000/svg"
   xmlns:sodipodi="http://sodipodi.sourceforge.net/DTD/sodipodi-0.dtd"
   xmlns:inkscape="http://www.inkscape.org/namespaces/inkscape"
   version="1.1"
   id="svg2"
   width="64"
   height="64"
   viewBox="0 0 64 64"
   sodipodi:docname="sale.svg"
   inkscape:version="0.92.2 (5c3e80d, 2017-08-06)"
   inkscape:export-filename="C:\Users\Gebruiker\Desktop\IKEA\Icons\sale.png"
   inkscape:export-xdpi="96"
   inkscape:export-ydpi="96">
  <metadata
     id="metadata8">
    <rdf:RDF>
      <cc:Work
         rdf:about="">
        <dc:format>image/svg+xml</dc:format>
        <dc:type
           rdf:resource="http://purl.org/dc/dcmitype/StillImage" />
        <dc:title></dc:title>
      </cc:Work>
    </rdf:RDF>
  </metadata>
  <defs
     id="defs6" />
  <sodipodi:namedview
     pagecolor="#ffffff"
     bordercolor="#666666"
     borderopacity="1"
     objecttolerance="10"
     gridtolerance="10"
     guidetolerance="10"
     inkscape:pageopacity="0"
     inkscape:pageshadow="2"
     inkscape:window-width="1600"
     inkscape:window-height="838"
     id="namedview4"
     showgrid="false"
     inkscape:zoom="1.84375"
     inkscape:cx="-8.5635692"
     inkscape:cy="24.376291"
     inkscape:window-x="-8"
     inkscape:window-y="-8"
     inkscape:window-maximized="1"
     inkscape:current-layer="layer2" />
  <g
     inkscape:groupmode="layer"
     id="layer1"
     inkscape:label="Layer 1"
     style="display:inline;opacity:1">
    <ellipse
       style="fill:#003399;fill-opacity:1;stroke:none;stroke-width:11.69998932;stroke-miterlimit:4;stroke-dasharray:none;stroke-opacity:1"
       id="path4507"
       cx="32.071487"
       cy="31.928513"
       rx="28.811605"
       ry="29.19512" />
  </g>
  <g
     inkscape:groupmode="layer"
     id="layer2"
     inkscape:label="Layer 2"
     style="display:inline">
    <ellipse
       style="fill:none;fill-opacity:1;stroke:#ffcd00;stroke-width:5.18121672;stroke-miterlimit:4;stroke-dasharray:none;stroke-opacity:1"
       id="path4510"
       cx="32.079037"
       cy="32.018215"
       rx="22.08106"
       ry="21.904415" />
  </g>
  <g
     inkscape:groupmode="layer"
     id="layer3"
     inkscape:label="Layer 3"
     style="display:inline">
    <path
       style="fill:#ffcd00;fill-opacity:1;stroke:none;stroke-width:0.81599998px;stroke-linecap:butt;stroke-linejoin:miter;stroke-opacity:1"
       d="m 25.934783,34.470824 -0.912813,-0.110644 -0.525559,0.442577 -1.189425,3.789558 -0.02766,0.995797 0.387254,0.940475 1.07878,0.691525 1.90861,0.968136 1.825626,0.636203 2.295866,0.359593 2.904406,-0.110644 2.295864,-0.55322 1.438374,-0.580882 1.10644,-0.968135 1.189424,-1.493695 0.608542,-1.493695 0.193628,-1.244745 v -2.295864 l -0.27661,-1.659662 -0.774507,-1.466034 -0.857492,-0.885153 -1.217085,-0.82983 -2.157559,-1.023458 -1.825628,-0.580881 -2.849084,-0.774508 -0.802169,-0.331933 -1.051119,-0.719187 -0.746848,-0.940474 -0.27661,-0.58088 0.02766,-0.719187 0.414916,-0.82983 0.27661,-0.497899 0.636203,-0.580881 1.023457,-0.525559 0.829831,-0.22129 1.438373,0.02766 0.829831,0.08298 0.912813,0.248948 0.719186,0.331933 0.497899,0.359593 0.497898,0.525559 0.497898,0.580881 0.55322,0.995797 -0.08298,0.636203 -0.138306,0.55322 -0.02766,0.52556 0.331932,0.470237 0.636203,0.27661 0.691526,-0.165966 0.304271,-0.636203 0.580881,-1.549017 0.414916,-1.272407 0.165966,-0.608542 -0.193627,-0.580882 -0.470238,-0.608541 -2.019254,-0.995797 -1.272406,-0.580882 -2.71078,-0.387254 -3.374644,0.02766 -1.549017,0.525559 -1.300069,0.80217 -1.10644,0.912813 -0.82983,1.07878 -0.442576,1.134101 -0.27661,1.106442 -0.05532,1.659661 0.193626,1.161762 0.636204,1.189424 0.995797,1.023457 2.074576,1.07878 1.466033,0.55322 1.742645,0.470237 2.627796,0.912814 1.521356,0.636203 0.885152,0.774509 0.470237,0.82983 0.138306,1.244746 -0.110643,1.217085 -0.414916,0.857492 -0.912814,0.995796 -1.189424,0.691525 -1.189422,0.387254 -2.378848,0.08298 -1.936272,-0.829831 -1.272407,-1.189423 -0.85749,-1.272406 -0.331933,-1.383051 -0.05532,-1.023457 -0.05532,-0.4979 -0.110644,-0.138304 z"
       id="path4513"
       inkscape:connector-curvature="0" />
    <rect
       style="fill:#ffcd00;fill-opacity:1;stroke:none;stroke-width:5.9573307;stroke-miterlimit:4;stroke-dasharray:none;stroke-opacity:1"
       id="rect4515"
       width="2.5035894"
       height="29.338936"
       x="31.040508"
       y="17.115225"
       ry="1.0425003" />
  </g>
</svg>
